<svg width="173" height="173" viewBox="0 0 173 173" fill="none" xmlns="http://www.w3.org/2000/svg">
<rect width="173" height="173" fill="#FFFDFA"/>
<path d="M24.9026 82.0834L24.9026 82.0835L24.9057 82.0809L25.0175 81.9917C26.2459 81.1284 27.8133 80.6638 29.4343 80.8458C32.8847 81.233 35.4104 84.3688 35.0204 87.8443C34.6301 91.3212 31.4939 93.8465 28.0189 93.4564L27.968 93.4507C27.8747 93.4137 27.783 93.4034 27.7165 93.396L27.7083 93.3951L27.6822 93.3922L27.6822 93.3922L27.6821 93.3922L27.6821 93.3922L27.6821 93.3922L27.6821 93.3922L27.6821 93.3922L27.6821 93.3922L27.6821 93.3922L27.6821 93.3922L27.6821 93.3922L27.6821 93.3922L27.6821 93.3922L27.6821 93.3922L27.6821 93.3922L27.682 93.3922L27.682 93.3922L27.682 93.3922L27.682 93.3922L27.682 93.3922L27.682 93.3922L27.682 93.3922L27.682 93.3922L27.682 93.3921L27.682 93.3921L27.6819 93.3921L27.6819 93.3921L27.6819 93.3921L27.6819 93.3921L27.6819 93.3921L27.6819 93.3921L27.6819 93.3921L27.6819 93.3921L27.6819 93.3921L27.6819 93.3921L27.6818 93.3921L27.6818 93.3921L27.6818 93.3921L27.6818 93.3921L27.6818 93.3921L27.6818 93.3921L27.6818 93.3921L27.6818 93.3921L27.6818 93.3921L27.6818 93.3921L27.6818 93.3921L27.6817 93.3921L27.6817 93.3921L27.6817 93.3921L27.6817 93.3921L27.6817 93.3921L27.6817 93.3921L27.6817 93.3921L27.6817 93.3921L27.6817 93.3921L27.6817 93.3921L27.6816 93.3921L27.6816 93.3921L27.6816 93.3921L27.6816 93.3921L27.6816 93.3921L27.6816 93.3921L27.6816 93.3921L27.6816 93.3921L27.6816 93.3921L27.6815 93.3921L27.6815 93.3921L27.6815 93.3921L27.6815 93.3921L27.6815 93.3921L27.6815 93.3921L27.6815 93.3921L27.6814 93.3921L27.6814 93.3921L27.6814 93.3921L27.6814 93.3921L27.6814 93.3921L27.6814 93.3921L27.6814 93.3921L27.6813 93.3921L27.6813 93.3921L27.6813 93.3921L27.6813 93.3921L27.6813 93.3921L27.6813 93.3921L27.6813 93.3921L27.6812 93.3921L27.6812 93.3921L27.6812 93.3921L27.6812 93.3921L27.6812 93.3921L27.6812 93.3921L27.6811 93.3921L27.6811 93.3921L27.6811 93.3921L27.6811 93.3921L27.6811 93.392L27.681 93.392L27.681 93.392L27.681 93.392L27.681 93.392L27.681 93.392L27.6809 93.392L27.6809 93.392L27.6809 93.392L27.6809 93.392L27.6809 93.392L27.6808 93.392L27.6808 93.392L27.6808 93.392L27.6808 93.392L27.6808 93.392L27.6807 93.392L27.6807 93.392L27.6807 93.392L27.6807 93.392L27.6806 93.392L27.6806 93.392L27.6806 93.392L27.6806 93.392L27.6806 93.392L27.6805 93.392L27.6805 93.392L27.6805 93.392L27.6805 93.392L27.6804 93.392L27.6804 93.392L27.6804 93.392L27.6804 93.392L27.6803 93.392L27.6803 93.392L27.6803 93.392L27.6803 93.392L27.6802 93.392L27.6802 93.392L27.6802 93.3919L27.6801 93.3919L27.6801 93.3919L27.6801 93.3919L27.6801 93.3919L27.68 93.3919L27.68 93.3919L27.68 93.3919L27.6799 93.3919L27.6799 93.3919L27.6799 93.3919L27.6799 93.3919L27.6798 93.3919L27.6798 93.3919L27.6798 93.3919L27.6797 93.3919L27.6797 93.3919L27.6797 93.3919L27.6796 93.3919L27.6796 93.3919L27.6796 93.3919L27.6795 93.3919L27.6795 93.3919L27.6795 93.3919L27.6794 93.3919L27.6794 93.3919L27.6794 93.3919L27.6793 93.3919L27.6793 93.3919L27.6793 93.3918L27.6792 93.3918L27.6792 93.3918L27.6792 93.3918L27.6791 93.3918L27.6791 93.3918L27.679 93.3918L27.679 93.3918L27.679 93.3918L27.6789 93.3918L27.6789 93.3918L27.6789 93.3918L27.6788 93.3918L27.6788 93.3918L27.6787 93.3918L27.6787 93.3918L27.6787 93.3918L27.6786 93.3918L27.6786 93.3918L27.6785 93.3918L27.6785 93.3918L27.6785 93.3918L27.6784 93.3918L27.6784 93.3917L27.6783 93.3917L27.6783 93.3917L27.6782 93.3917L27.6782 93.3917L27.6782 93.3917L27.6781 93.3917L27.6781 93.3917L27.678 93.3917L27.678 93.3917L27.6779 93.3917L27.6779 93.3917L27.6778 93.3917L27.6778 93.3917L27.6777 93.3917L27.6777 93.3917L27.6777 93.3917L27.6776 93.3917L27.6776 93.3917L27.6775 93.3916L27.6775 93.3916L27.6774 93.3916L27.6774 93.3916L27.6773 93.3916L27.6773 93.3916L27.6772 93.3916L27.6772 93.3916L27.6771 93.3916L27.6771 93.3916L27.677 93.3916L27.677 93.3916L27.6769 93.3916L27.6768 93.3916L27.6768 93.3916L27.6767 93.3916L27.6767 93.3916L27.6766 93.3916L27.6766 93.3915L27.6765 93.3915L27.6765 93.3915L27.6764 93.3915L27.6764 93.3915L27.6763 93.3915L27.6762 93.3915L27.6762 93.3915L27.6761 93.3915L27.6761 93.3915L27.676 93.3915L27.676 93.3915L27.6759 93.3915L27.6758 93.3915L27.6758 93.3915L27.6757 93.3914L27.6757 93.3914L27.6756 93.3914L27.6755 93.3914L27.6755 93.3914L27.6754 93.3914L27.6754 93.3914L27.6753 93.3914L27.6752 93.3914L27.6752 93.3914L27.6751 93.3914L27.675 93.3914L27.675 93.3914L27.6749 93.3914L27.6748 93.3914L27.6748 93.3913L27.6747 93.3913L27.6746 93.3913L27.6746 93.3913L27.6745 93.3913L27.6744 93.3913L27.6744 93.3913L27.6743 93.3913L27.6742 93.3913L27.6742 93.3913L27.6741 93.3913L27.674 93.3913L27.674 93.3913L27.6739 93.3912L27.6738 93.3912L27.6737 93.3912L27.6737 93.3912L27.6736 93.3912L27.6735 93.3912L27.6734 93.3912L27.6734 93.3912L27.6733 93.3912L27.6732 93.3912L27.6732 93.3912L27.6731 93.3912L27.673 93.3911L27.6729 93.3911L27.6728 93.3911L27.6728 93.3911L27.6727 93.3911L27.6726 93.3911L27.6725 93.3911L27.6725 93.3911L27.6724 93.3911L27.6723 93.3911L27.6722 93.3911L27.6721 93.391L27.6721 93.391L27.672 93.391L27.6719 93.391L27.6718 93.391L27.6717 93.391L27.6716 93.391L27.6716 93.391L27.6715 93.391L27.6714 93.391L27.6713 93.391L27.6712 93.3909L27.6711 93.3909L27.671 93.3909L27.671 93.3909L27.6709 93.3909L27.6708 93.3909L27.6707 93.3909L27.6706 93.3909L27.6705 93.3909L27.6704 93.3909L27.6703 93.3908L27.6703 93.3908L27.6702 93.3908L27.6701 93.3908L27.67 93.3908L27.6699 93.3908L27.6698 93.3908L27.6697 93.3908L27.6696 93.3908L27.6695 93.3908L27.6694 93.3907L27.6693 93.3907L27.6692 93.3907L27.6691 93.3907L27.669 93.3907L27.6689 93.3907L27.6688 93.3907L27.6687 93.3907L27.6686 93.3907L27.6685 93.3906L27.6684 93.3906L27.6683 93.3906L27.6682 93.3906L27.6681 93.3906L27.668 93.3906L27.6679 93.3906L27.6678 93.3906L27.6677 93.3906L27.6676 93.3905L27.6675 93.3905L27.6674 93.3905L27.6673 93.3905L27.6672 93.3905L27.6671 93.3905L27.667 93.3905L27.6669 93.3905L27.6668 93.3904L27.6667 93.3904L27.6666 93.3904L27.6665 93.3904L27.6664 93.3904L27.6662 93.3904L27.6661 93.3904L27.666 93.3904L27.6659 93.3903L27.6658 93.3903L27.6657 93.3903L27.6656 93.3903L27.6655 93.3903L27.6653 93.3903L27.6652 93.3903L27.6651 93.3903L27.665 93.3902L27.6649 93.3902L27.6648 93.3902L27.6647 93.3902L27.6645 93.3902L27.6644 93.3902L27.6643 93.3902L27.6642 93.3902L27.6641 93.3901L27.6639 93.3901L27.6638 93.3901L27.6637 93.3901L27.6636 93.3901L27.6635 93.3901L27.6633 93.3901L27.6632 93.39L27.6631 93.39L27.663 93.39L27.6628 93.39L27.6627 93.39L27.6626 93.39L27.6625 93.39L27.6623 93.3899L27.6622 93.3899L27.6621 93.3899L27.6619 93.3899L27.6618 93.3899L27.6617 93.3899L27.6616 93.3899L27.6614 93.3898L27.6613 93.3898L27.6612 93.3898L27.6611 93.3898C24.3596 92.8369 22.0311 89.8018 22.4097 86.4289C22.6088 84.6546 23.5514 83.1156 24.9026 82.0834ZM25.8281 89.6193L25.8326 89.6249L25.8375 89.6302C26.0363 89.8434 26.3056 89.9667 26.5815 89.9976C26.8249 90.025 27.1497 89.9717 27.3739 89.7928C27.8367 89.4234 27.9079 88.7299 27.5225 88.2455C27.0076 87.5722 27.124 86.568 27.7658 86.0545C28.4684 85.5162 29.4475 85.6301 29.9839 86.3022C30.3506 86.7615 31.0443 86.8394 31.5037 86.4727C31.963 86.1061 32.0409 85.4124 31.6742 84.953C30.3797 83.3312 28.0398 83.0685 26.418 84.363C24.7962 85.6576 24.5335 87.9974 25.8281 89.6193Z" fill="#FFFDFA" stroke="#808080" stroke-width="0.377898"/>
<path d="M67.5322 45.535C67.7356 45.3727 67.9942 45.19 68.2209 45.0567C68.1425 45.0479 68.1105 45.0972 68.0553 45.1175L67.5322 45.535Z" fill="#808080"/>
<path d="M141.716 85.0758L141.729 85.0922L141.773 85.1109L149.264 88.3314C149.265 88.3318 149.266 88.3321 149.267 88.3324C149.446 88.4163 149.572 88.5598 149.626 88.7288C149.679 88.8971 149.666 89.1048 149.541 89.3243L149.535 89.3347L149.531 89.3458C149.417 89.6221 149.128 89.7977 148.82 89.7631C148.772 89.7578 148.693 89.7304 148.623 89.6978L148.623 89.6977L148.618 89.6957L141.525 86.6506L141.42 86.6057L141.332 86.677L137.725 89.5795L137.48 89.7768L137.769 89.9004L143.978 92.5544C143.978 92.5546 143.979 92.5547 143.979 92.5549C144.366 92.7274 144.52 93.1424 144.358 93.4933L144.358 93.4933L144.355 93.5009C144.241 93.7772 143.952 93.9528 143.644 93.9182C143.596 93.9129 143.517 93.8855 143.447 93.8529L143.447 93.8529L143.442 93.8508L136.349 90.8057L136.244 90.7608L136.156 90.8321L132.549 93.7346L132.304 93.9319L132.593 94.0555L138.802 96.7095C138.802 96.7097 138.803 96.7098 138.803 96.71C139.19 96.8825 139.344 97.2975 139.182 97.6485L139.182 97.6484L139.179 97.656C139.065 97.9323 138.776 98.1079 138.468 98.0733C138.42 98.068 138.341 98.0406 138.271 98.008L138.271 98.008L138.266 98.0059L131.173 94.9608L131.068 94.9158L130.979 94.9877L127.312 97.9627L127.069 98.1595L127.356 98.283L133.588 100.966C133.588 100.966 133.589 100.966 133.589 100.967C133.976 101.139 134.131 101.554 133.968 101.905L133.968 101.905L133.965 101.913C133.851 102.189 133.562 102.365 133.254 102.33C133.207 102.325 133.127 102.297 133.057 102.265L133.057 102.265L133.053 102.263L125.936 99.1886L125.831 99.1432L125.742 99.2153L122.162 102.121L121.919 102.318L122.206 102.441L128.438 105.124C128.439 105.124 128.439 105.124 128.439 105.125C128.827 105.297 128.981 105.712 128.818 106.063L128.818 106.063L128.815 106.071C128.701 106.347 128.412 106.523 128.104 106.488C128.057 106.483 127.978 106.455 127.907 106.423L127.907 106.423L127.903 106.421L120.786 103.347L120.682 103.302L120.594 103.372L116.961 106.272L116.714 106.469L117.004 106.593L123.288 109.282C123.289 109.282 123.289 109.283 123.289 109.283C123.677 109.455 123.831 109.87 123.668 110.221L123.668 110.221L123.665 110.229C123.552 110.505 123.262 110.681 122.954 110.646C122.907 110.641 122.828 110.613 122.757 110.581L122.757 110.581L122.753 110.579L115.61 107.502L115.506 107.457L115.418 107.527L115.389 107.551L111.785 110.427L111.756 110.45L111.509 110.647L111.799 110.772L118.083 113.461C118.084 113.461 118.084 113.461 118.084 113.461C118.472 113.634 118.626 114.049 118.463 114.4L118.463 114.399L118.46 114.407C118.347 114.683 118.057 114.859 117.749 114.824C117.702 114.819 117.623 114.792 117.552 114.759L117.552 114.759L117.548 114.757L110.405 111.68L110.301 111.635L110.212 111.706L106.606 114.609L106.362 114.805L106.649 114.929L112.931 117.645C112.931 117.645 112.931 117.645 112.931 117.645C113.319 117.817 113.473 118.233 113.311 118.584L113.311 118.584L113.307 118.591C113.194 118.867 112.905 119.043 112.597 119.009C112.549 119.003 112.47 118.976 112.4 118.943L112.4 118.943L112.395 118.941L105.226 115.861L105.123 115.817L105.035 115.886L101.35 118.78L101.1 118.976L101.392 119.102L107.699 121.82C107.7 121.82 107.7 121.82 107.7 121.82C108.088 121.993 108.242 122.408 108.08 122.759L108.079 122.759L108.076 122.767C107.963 123.043 107.673 123.218 107.366 123.184C107.318 123.179 107.239 123.151 107.168 123.119L107.168 123.119L107.164 123.116L99.9952 120.036L99.8907 119.992L99.8021 120.063L96.1955 122.965L95.9512 123.162L96.2392 123.286L102.547 126.004C102.547 126.004 102.547 126.005 102.548 126.005C102.935 126.177 103.089 126.592 102.927 126.943L102.927 126.943L102.923 126.951C102.81 127.227 102.521 127.403 102.213 127.368C102.165 127.363 102.086 127.335 102.016 127.303L102.016 127.303L102.011 127.301L94.566 124.092C94.566 124.092 94.5659 124.092 94.5658 124.092L94.5648 124.09C94.5591 124.083 94.5478 124.069 94.5329 124.054C94.516 124.037 94.4966 124.021 94.4731 124.006L94.4357 123.982L94.3913 123.977L94.3408 123.971L28.6319 95.6891C29.5714 95.7019 30.4857 95.5571 31.3349 95.2751L31.3351 95.275C32.4762 94.8941 33.5665 94.268 34.4416 93.4549C34.4613 93.4444 34.4792 93.4325 34.4952 93.4197L93.4841 118.795C93.485 118.795 93.4859 118.796 93.4868 118.796C93.5903 118.843 93.7194 118.858 93.7909 118.866L93.8007 118.867C94.0722 118.897 94.374 118.84 94.6017 118.631L132.919 87.8568C133.24 87.6277 133.373 87.2513 133.322 86.8711C133.269 86.4806 133.017 86.1682 132.691 86.0063L132.691 86.006L132.681 86.002L74.944 61.1722L77.3131 59.2812L78.0349 58.7051C78.2296 58.569 78.4121 58.3949 78.5626 58.2512C78.5974 58.218 78.6304 58.1865 78.6615 58.1574C78.6869 58.1371 78.7192 58.1113 78.7483 58.0789C78.7564 58.0698 78.764 58.0606 78.7712 58.0512L141.716 85.0758Z" fill="#FFFDFA" stroke="#808080" stroke-width="0.377898"/>
<path d="M93.7742 116.769L130.506 87.2362L72.9548 62.5204L36.0782 91.9307L93.7742 116.769Z" fill="#DEBA99"/>
<path d="M29.2221 78.6587L68.7873 47.0788L68.7888 47.0775C70.0887 46.0169 71.7342 45.5338 73.435 45.7247C76.9094 46.1147 79.4086 49.2718 79.0442 52.7526C78.8563 54.4258 77.9922 55.9476 76.6935 56.9842L76.6788 56.9959L76.6668 57.0102L76.6057 57.0827L76.5824 57.1104C76.57 57.116 76.5599 57.1216 76.5524 57.126C76.5369 57.1351 76.5223 57.1455 76.5102 57.1546C76.3851 57.2065 76.2818 57.2889 76.2033 57.3992L72.257 60.5491C72.2003 60.5813 72.1489 60.6239 72.1086 60.6588C72.0896 60.6752 72.073 60.69 72.0576 60.7037C72.031 60.7274 72.008 60.7478 71.9826 60.7681C71.9825 60.7681 71.9825 60.7681 71.9825 60.7681L37.1283 88.5644C37.1577 88.4084 37.1814 88.2511 37.1997 88.0872C37.7216 83.4374 34.3797 79.2197 29.703 78.6948C29.5392 78.6764 29.3807 78.6646 29.2221 78.6587Z" fill="#FFFDFA" stroke="#808080" stroke-width="0.377898"/>
</svg>
