<svg width="173" height="173" viewBox="0 0 173 173" fill="none" xmlns="http://www.w3.org/2000/svg">
<rect width="173" height="173" fill="#FFFDFA"/>
<g clip-path="url(#clip0_2_535)">
<path d="M52.1714 88.559L117.691 56.9766V79.0452L54.2769 116.57L47.6797 104.14L52.1714 88.559Z" fill="#FFFDFA" stroke="#808080" stroke-width="0.311925" stroke-miterlimit="10"/>
<path d="M24.816 76.2681L24.6913 99.1166L54.2773 116.569L54.948 93.4395L56.6636 75.613L24.816 76.2681Z" fill="#FFFDFA" stroke="#808080" stroke-width="0.311925" stroke-miterlimit="10"/>
<path d="M87.8408 41.2539L24.8164 76.2675L54.9484 93.4389L117.692 56.9749L87.8408 41.2539Z" fill="#FFFDFA" stroke="#808080" stroke-width="0.311925" stroke-miterlimit="10"/>
<path d="M110.548 58.567L57.6304 89.5879C55.9928 90.5549 53.9497 90.5237 52.3277 89.5411L32.5517 77.4072C31.3975 76.7054 31.4287 75.0054 32.6296 74.3504L85.3449 45.3413C86.8266 44.5303 88.6046 44.4991 90.1174 45.2634L110.47 55.5569C111.671 56.1651 111.718 57.8807 110.548 58.567Z" fill="#FFFDFA" stroke="#808080" stroke-width="0.311925" stroke-miterlimit="10"/>
<path d="M94.4842 50.2673H92.3475V50.7352C92.3475 50.8912 92.4566 51.0471 92.6594 51.1719C93.0805 51.4059 93.7511 51.4059 94.1722 51.1719C94.375 51.0471 94.4842 50.8912 94.4842 50.7352V50.2673Z" fill="#FFFDFA" stroke="#808080" stroke-width="0.0779812" stroke-miterlimit="10"/>
<path d="M94.1722 50.7049C93.7511 50.9388 93.0805 50.9388 92.6594 50.7049C92.2383 50.4709 92.2383 50.0654 92.6594 49.8315C93.0805 49.582 93.7511 49.5976 94.1722 49.8315C94.5777 50.081 94.5777 50.4709 94.1722 50.7049Z" fill="#FFFDFA" stroke="#808080" stroke-width="0.0779812" stroke-miterlimit="10"/>
<path d="M105.511 43.9225V43.1895H104.747L92.3477 49.5527V50.2857C92.3477 50.4417 92.4568 50.5977 92.6596 50.7224C93.0807 50.972 93.7669 50.972 94.188 50.7224L105.183 44.3748C105.402 44.2344 105.511 44.0784 105.511 43.9225Z" fill="#FFFDFA" stroke="#808080" stroke-width="0.0779812" stroke-miterlimit="10"/>
<path d="M103.655 42.736L92.6596 49.0837C92.2385 49.3332 92.2385 49.7231 92.6596 49.9727C93.0807 50.2222 93.7669 50.2222 94.188 49.9727L105.183 43.625C105.604 43.3755 105.604 42.9855 105.183 42.736C104.762 42.5021 104.076 42.5021 103.655 42.736Z" fill="#FFFDFA" stroke="#808080" stroke-width="0.0779812" stroke-miterlimit="10"/>
<path d="M105.496 42.6562H103.359V43.1865C103.359 43.3425 103.469 43.4984 103.671 43.6232C104.092 43.8572 104.763 43.8572 105.184 43.6232C105.387 43.4984 105.496 43.3425 105.496 43.1865V42.6562Z" fill="#FFFDFA" stroke="#808080" stroke-width="0.0779812" stroke-miterlimit="10"/>
<path d="M105.184 43.0938C104.763 43.3277 104.092 43.3277 103.671 43.0938C103.25 42.8598 103.25 42.4543 103.671 42.2204C104.092 41.9864 104.763 41.9864 105.184 42.2204C105.605 42.4543 105.605 42.8442 105.184 43.0938Z" fill="#FFFDFA" stroke="#808080" stroke-width="0.0779812" stroke-miterlimit="10"/>
<path d="M105.496 41.7988H103.359V42.6566C103.359 42.8126 103.469 42.9685 103.671 43.0933C104.092 43.3273 104.763 43.3273 105.184 43.0933C105.387 42.9685 105.496 42.8126 105.496 42.6566V41.7988Z" fill="#FFFDFA" stroke="#808080" stroke-width="0.0779812" stroke-miterlimit="10"/>
<path d="M105.184 42.2363C104.763 42.4703 104.092 42.4703 103.671 42.2363C103.25 42.0024 103.25 41.5969 103.671 41.363C104.092 41.129 104.763 41.129 105.184 41.363C105.605 41.6125 105.605 42.0024 105.184 42.2363Z" fill="#FFFDFA" stroke="#808080" stroke-width="0.0779812" stroke-miterlimit="10"/>
<path d="M111.234 40.694L111.062 40.7876L111.078 40.8188C110.922 40.9904 110.828 41.2555 110.828 41.5986C110.828 42.5032 111.452 43.5793 112.232 44.0316C112.528 44.2032 112.809 44.25 113.043 44.2032L113.058 44.2344L113.23 44.1408C113.479 44.0004 113.635 43.6729 113.635 43.2362C113.635 42.3316 113.012 41.2555 112.232 40.8032C111.842 40.5693 111.483 40.5381 111.234 40.694Z" fill="#FFFDFA" stroke="#808080" stroke-width="0.0779812" stroke-miterlimit="10"/>
<path d="M110.644 41.5841L110.598 42.1612L111.627 43.9547L112.157 44.2043C112.875 44.563 113.452 44.1887 113.452 43.3309C113.452 42.4263 112.828 41.3502 112.048 40.8979C111.315 40.4768 110.707 40.7731 110.644 41.5841Z" fill="#FFFDFA" stroke="#808080" stroke-width="0.0779812" stroke-miterlimit="10"/>
<path d="M111.004 42.4565L111.3 42.4721L111.752 40.7565C111.425 40.6474 111.129 40.6941 110.926 40.8969L111.004 42.4565Z" fill="#FFFDFA" stroke="#808080" stroke-width="0.0779812" stroke-miterlimit="10"/>
<path d="M112.032 43.3764C112.032 42.9085 111.705 42.347 111.299 42.1131C111.096 42.0039 110.909 41.9883 110.784 42.0663L110.426 42.2691L111.44 44.0626L111.814 43.8443C111.954 43.7663 112.032 43.6103 112.032 43.3764Z" fill="#FFFDFA" stroke="#808080" stroke-width="0.0779812" stroke-miterlimit="10"/>
<path d="M111.657 43.5945C111.657 44.0624 111.33 44.2495 110.924 44.0156C110.519 43.7816 110.191 43.2202 110.191 42.7523C110.191 42.2844 110.519 42.0972 110.924 42.3312C111.33 42.5651 111.657 43.1266 111.657 43.5945Z" fill="#FFFDFA" stroke="#808080" stroke-width="0.0779812" stroke-miterlimit="10"/>
<path d="M111.389 44.405L110.75 44.7793L111.218 44.0931L111.873 43.7188L111.389 44.405Z" fill="#FFFDFA" stroke="#808080" stroke-width="0.0779812" stroke-miterlimit="10"/>
<path d="M109.8 44.2191L109.316 43.0026L109.8 42.3164L110.751 42.8779L111.219 44.0944L110.751 44.7806L109.8 44.2191Z" fill="#FFFDFA" stroke="#808080" stroke-width="0.0779812" stroke-miterlimit="10"/>
<path d="M111.392 42.5029L110.752 42.8772L109.801 42.3157L110.44 41.9414L111.392 42.5029Z" fill="#FFFDFA" stroke="#808080" stroke-width="0.0779812" stroke-miterlimit="10"/>
<path d="M111.873 43.7185L111.218 44.0928L110.75 42.8763L111.389 42.502L111.873 43.7185Z" fill="#FFFDFA" stroke="#808080" stroke-width="0.0779812" stroke-miterlimit="10"/>
<path d="M101.257 34.9226L101.086 35.0318L101.101 35.063C100.945 35.2345 100.852 35.4997 100.852 35.8428C100.852 36.7474 101.475 37.8235 102.255 38.2758C102.552 38.4474 102.832 38.4942 103.066 38.4474L103.082 38.4786L103.253 38.385C103.503 38.2446 103.659 37.9171 103.659 37.4804C103.659 36.5758 103.035 35.4997 102.255 35.0474C101.865 34.7978 101.522 34.7822 101.257 34.9226Z" fill="#FFFDFA" stroke="#808080" stroke-width="0.0779812" stroke-miterlimit="10"/>
<path d="M100.664 35.8273L100.617 36.4044L101.647 38.198L102.177 38.4475C102.91 38.8062 103.471 38.4319 103.471 37.5741C103.471 36.6851 102.847 35.5934 102.068 35.1411C101.335 34.7044 100.726 35.0163 100.664 35.8273Z" fill="#FFFDFA" stroke="#808080" stroke-width="0.0779812" stroke-miterlimit="10"/>
<path d="M101.023 36.7007L101.32 36.7163L101.772 35.0007C101.429 34.8915 101.148 34.9383 100.945 35.141L101.023 36.7007Z" fill="#FFFDFA" stroke="#808080" stroke-width="0.0779812" stroke-miterlimit="10"/>
<path d="M102.052 37.6059C102.052 37.138 101.724 36.5766 101.319 36.3426C101.116 36.2179 100.929 36.2179 100.804 36.2958L100.445 36.4986L101.459 38.2922L101.833 38.0738C101.974 38.0114 102.052 37.8399 102.052 37.6059Z" fill="#FFFDFA" stroke="#808080" stroke-width="0.0779812" stroke-miterlimit="10"/>
<path d="M101.677 37.823C101.677 38.2909 101.349 38.478 100.944 38.2441C100.538 38.0102 100.211 37.4487 100.211 36.9808C100.211 36.5129 100.538 36.3258 100.944 36.5597C101.349 36.7936 101.677 37.3707 101.677 37.823Z" fill="#FFFDFA" stroke="#808080" stroke-width="0.0779812" stroke-miterlimit="10"/>
<path d="M101.409 38.6335L100.77 39.0078L101.237 38.3372L101.892 37.9629L101.409 38.6335Z" fill="#FFFDFA" stroke="#808080" stroke-width="0.0779812" stroke-miterlimit="10"/>
<path d="M99.8194 38.4633L99.3359 37.2312L99.8194 36.5605L100.771 37.1064L101.239 38.3385L100.771 39.0092L99.8194 38.4633Z" fill="#FFFDFA" stroke="#808080" stroke-width="0.0779812" stroke-miterlimit="10"/>
<path d="M101.411 36.7314L100.772 37.1057L99.8203 36.5599L100.46 36.1855L101.411 36.7314Z" fill="#FFFDFA" stroke="#808080" stroke-width="0.0779812" stroke-miterlimit="10"/>
<path d="M101.892 37.9645L101.237 38.3388L100.77 37.1067L101.409 36.7324L101.892 37.9645Z" fill="#FFFDFA" stroke="#808080" stroke-width="0.0779812" stroke-miterlimit="10"/>
<path d="M99.6654 37.1055L98.2462 37.3082V38.9926C98.2462 39.1954 98.3865 39.3981 98.6517 39.5541L108.524 45.2467C109.054 45.5586 109.928 45.5586 110.458 45.2467C110.583 45.1843 111.097 44.8568 111.16 44.7788V43.0788L109.507 43.2348L99.6654 37.1055Z" fill="#FFFDFA" stroke="#808080" stroke-width="0.0779812" stroke-miterlimit="10"/>
<path d="M99.4627 36.3418C99.3223 36.373 98.7608 36.6693 98.636 36.7473C98.1058 37.0592 98.1058 37.5583 98.636 37.8702L108.508 43.5629C109.039 43.8748 109.912 43.8748 110.442 43.5629C110.567 43.5005 111.082 43.173 111.144 43.095L99.4627 36.3418Z" fill="#FFFDFA" stroke="#808080" stroke-width="0.0779812" stroke-miterlimit="10"/>
<path d="M105.562 37.4629H103.301V40.1922C103.301 40.3638 103.41 40.5198 103.628 40.6601C104.065 40.9097 104.782 40.9097 105.235 40.6601C105.453 40.5354 105.562 40.3638 105.562 40.1922V37.4629Z" fill="#FFFDFA" stroke="#808080" stroke-width="0.0779812" stroke-miterlimit="10"/>
<path d="M105.235 37.9316C104.798 38.1811 104.081 38.1811 103.628 37.9316C103.192 37.682 103.192 37.2609 103.628 37.0114C104.065 36.7618 104.782 36.7618 105.235 37.0114C105.687 37.2609 105.687 37.682 105.235 37.9316Z" fill="#FFFDFA" stroke="#808080" stroke-width="0.0779812" stroke-miterlimit="10"/>
<path d="M105.562 37.3223H103.301V37.4782C103.301 37.6498 103.41 37.8213 103.628 37.9461C104.065 38.1957 104.782 38.1957 105.235 37.9461C105.453 37.8213 105.562 37.6498 105.562 37.4782V37.3223Z" fill="#FFFDFA" stroke="#808080" stroke-width="0.0779812" stroke-miterlimit="10"/>
<path d="M105.235 37.7753C104.798 38.0248 104.081 38.0248 103.628 37.7753C103.192 37.5258 103.192 37.1047 103.628 36.8551C104.065 36.6056 104.782 36.6056 105.235 36.8551C105.687 37.1047 105.687 37.5258 105.235 37.7753Z" fill="#FFFDFA" stroke="#808080" stroke-width="0.0779812" stroke-miterlimit="10"/>
<path d="M105.558 36.6211H103.297V37.3229C103.297 37.4945 103.406 37.6504 103.624 37.7908C104.061 38.0404 104.779 38.0404 105.231 37.7908C105.449 37.666 105.558 37.4945 105.558 37.3229V36.6211Z" fill="#FFFDFA" stroke="#808080" stroke-width="0.0779812" stroke-miterlimit="10"/>
<path d="M105.231 37.0898C104.794 37.3393 104.077 37.3393 103.624 37.0898C103.188 36.8402 103.188 36.4191 103.624 36.1696C104.061 35.92 104.779 35.92 105.231 36.1696C105.683 36.4191 105.683 36.8246 105.231 37.0898Z" fill="#FFFDFA" stroke="#808080" stroke-width="0.0779812" stroke-miterlimit="10"/>
<path d="M104.578 37.4168C104.578 37.4168 103.907 37.3856 103.642 37.2297C103.424 37.1049 103.315 36.9489 103.315 36.793L100.57 38.0875C100.414 38.181 100.32 38.2902 100.273 38.3994H100.242V38.5553C100.242 38.7269 100.351 38.8985 100.57 39.0232C101.006 39.2728 101.724 39.2728 102.176 39.0232C102.176 39.0232 104.983 37.4168 105.249 37.4792V37.0893L104.578 37.4168Z" fill="#FFFDFA" stroke="#808080" stroke-width="0.0779812" stroke-miterlimit="10"/>
<path d="M103.627 36.1543L100.554 37.9323C100.117 38.1818 100.117 38.6029 100.554 38.8524C100.991 39.102 101.708 39.102 102.16 38.8524L105.233 37.0745L103.627 36.1543Z" fill="#FFFDFA" stroke="#808080" stroke-width="0.0779812" stroke-miterlimit="10"/>
<path d="M104.187 41.9105C104.187 41.5206 103.907 41.0371 103.579 40.85C103.408 40.7564 103.252 40.7408 103.142 40.8032L102.004 41.4582L102.893 42.9399L104.016 42.3004C104.109 42.2536 104.187 42.1133 104.187 41.9105Z" fill="#FFFDFA" stroke="#808080" stroke-width="0.0779812" stroke-miterlimit="10"/>
<path d="M102.44 41.505C102.784 41.7077 103.049 42.1756 103.049 42.5655C103.049 42.9554 102.768 43.1114 102.44 42.9242C102.097 42.7215 101.832 42.2536 101.832 41.8637C101.832 41.4738 102.097 41.3178 102.44 41.505Z" fill="#FFFDFA" stroke="#808080" stroke-width="0.0779812" stroke-miterlimit="10"/>
<path d="M102.878 41.4894C102.769 41.4894 102.675 41.4738 102.613 41.427C102.535 41.3802 102.488 41.3178 102.488 41.2554C102.488 41.193 102.535 41.1307 102.613 41.0839C102.691 41.0371 102.785 41.0215 102.878 41.0215C102.987 41.0215 103.081 41.0371 103.143 41.0839C103.221 41.1307 103.268 41.193 103.268 41.2554C103.268 41.3178 103.221 41.3802 103.143 41.427C103.081 41.4582 102.987 41.4894 102.878 41.4894Z" fill="#FFFDFA" stroke="#808080" stroke-width="0.0779812" stroke-miterlimit="10"/>
<path d="M102.613 41.411C102.753 41.489 102.987 41.489 103.128 41.411C103.206 41.3642 103.237 41.3175 103.237 41.2551V39.8982L102.504 39.9138V41.2551C102.504 41.3019 102.551 41.3642 102.613 41.411Z" fill="#FFFDFA" stroke="#808080" stroke-width="0.0779812" stroke-miterlimit="10"/>
<path d="M103.143 40.0542C103.003 40.1321 102.769 40.1321 102.629 40.0542C102.488 39.9762 102.488 39.8358 102.629 39.7578C102.769 39.6798 103.003 39.6798 103.143 39.7578C103.284 39.8358 103.284 39.9762 103.143 40.0542Z" fill="#FFFDFA" stroke="#808080" stroke-width="0.0779812" stroke-miterlimit="10"/>
<path d="M102.753 42.0489C102.83 42.1892 102.877 42.3452 102.877 42.47C102.877 42.6103 102.83 42.7195 102.737 42.7663C102.643 42.8131 102.534 42.8131 102.409 42.7351C102.3 42.6727 102.191 42.548 102.113 42.4232C102.035 42.2828 101.988 42.1269 101.988 42.0021C101.988 41.8617 102.035 41.7525 102.129 41.7058C102.222 41.659 102.331 41.659 102.456 41.737C102.565 41.7837 102.675 41.9085 102.753 42.0489Z" fill="#FFFDFA" stroke="#808080" stroke-width="0.0779812" stroke-miterlimit="10"/>
<path d="M102.846 42.4692C102.846 42.204 102.659 41.8921 102.441 41.7518C102.331 41.6894 102.222 41.6738 102.144 41.7206L102.004 41.7985L102.581 42.8123L102.721 42.7343C102.799 42.6875 102.846 42.594 102.846 42.4692Z" fill="#FFFDFA" stroke="#808080" stroke-width="0.0779812" stroke-miterlimit="10"/>
<path d="M102.284 41.8311C102.518 41.9559 102.69 42.2834 102.69 42.5486C102.69 42.8137 102.503 42.9229 102.284 42.7825C102.05 42.6577 101.879 42.3302 101.879 42.0651C101.879 41.8155 102.066 41.7064 102.284 41.8311Z" fill="#FFFDFA" stroke="#808080" stroke-width="0.0779812" stroke-miterlimit="10"/>
<path d="M102.06 41.8341L101.992 41.873L102.522 42.7916L102.59 42.7526L102.06 41.8341Z" fill="#FFFDFA" stroke="#808080" stroke-width="0.0779812" stroke-miterlimit="10"/>
<g clip-path="url(#clip1_2_535)">
<path d="M149.927 105.199L92.9378 142.333L61.5894 124.429L120.855 88.8226L149.927 105.199Z" fill="#DEBA99"/>
</g>
<path d="M100.455 137.504L69.5741 119.64L75.3447 116.131L102.092 136.406L100.455 137.504Z" fill="#A08062"/>
<path d="M130.324 117.847L100.457 101.003L106.227 97.4943L132.117 116.6L130.324 117.847Z" fill="#A08062"/>
<path d="M85.5583 110.127L119.948 124.944L114.489 128.141L83.6868 111.141L85.5583 110.127Z" fill="#A08062"/>
<path d="M114.023 92.8937L145.995 107.71L140.537 111.219L112.463 93.8295L114.023 92.8937Z" fill="#A08062"/>
</g>
<defs>
<clipPath id="clip0_2_535">
<rect width="125.425" height="112.059" fill="white" transform="translate(24.5078 30.2754)"/>
</clipPath>
<clipPath id="clip1_2_535">
<rect width="88.3371" height="53.5107" fill="white" transform="translate(61.5895 88.8225)"/>
</clipPath>
</defs>
</svg>
