<svg width="173" height="173" viewBox="0 0 173 173" fill="none" xmlns="http://www.w3.org/2000/svg">
<rect width="173" height="173" fill="#FFFDFA"/>
<g clip-path="url(#clip0_2_441)">
<path d="M142.359 128.49C141.235 128.795 140.091 128.132 139.786 127.009L132.636 100.558L139.903 98.7164L144.236 125.507C144.425 126.875 143.643 128.142 142.359 128.49Z" fill="#FFFDFA"/>
<path fill-rule="evenodd" clip-rule="evenodd" d="M140.231 98.2173L144.635 125.447L144.636 125.452C144.85 127.003 143.962 128.473 142.465 128.88C141.123 129.244 139.76 128.451 139.397 127.114L132.14 100.267L140.231 98.2173ZM133.132 100.848L140.176 126.903C140.423 127.814 141.347 128.347 142.253 128.101C143.323 127.811 143.998 126.75 143.837 125.566L139.575 99.2159L133.132 100.848Z" fill="#808080"/>
<path d="M121.946 128.7C120.778 128.804 119.792 127.936 119.728 126.767L117.735 99.9301L124.907 99.3419L124.358 126.23C124.304 127.523 123.236 128.593 121.946 128.7Z" fill="#FFFDFA"/>
<path fill-rule="evenodd" clip-rule="evenodd" d="M125.319 98.903L124.761 126.243L124.761 126.247C124.697 127.751 123.463 128.979 121.98 129.102C120.583 129.226 119.403 128.184 119.325 126.793L117.303 99.5605L125.319 98.903ZM118.167 100.299L120.13 126.741L120.131 126.745C120.182 127.69 120.973 128.382 121.91 128.298L121.913 128.298C123.006 128.207 123.907 127.296 123.955 126.217L124.494 99.7803L118.167 100.299Z" fill="#808080"/>
<path d="M58.8543 130.132C57.6861 130.236 56.7001 129.368 56.6362 128.199L55.4832 100.981L62.2094 100.321L61.2647 127.581C61.2116 128.954 60.1839 130.024 58.8543 130.132Z" fill="#FFFDFA"/>
<path fill-rule="evenodd" clip-rule="evenodd" d="M62.6313 99.8749L61.6706 127.595L61.6705 127.597C61.6097 129.17 60.4268 130.409 58.8909 130.534C57.4925 130.657 56.312 129.613 56.2359 128.221L56.2357 128.216L55.0666 100.617L62.6313 99.8749ZM55.9051 101.346L57.0417 128.177C57.0417 128.178 57.0418 128.178 57.0418 128.179C57.0946 129.123 57.8846 129.813 58.8211 129.73L58.8244 129.729C59.9468 129.639 60.8185 128.738 60.8641 127.566C60.8642 127.566 60.8642 127.566 60.8642 127.565L61.7929 100.768L55.9051 101.346Z" fill="#808080"/>
<path d="M61.7771 104.889L145.479 103.003C145.479 103.003 156.226 103.634 155.579 87.5049L155.289 73.1035L139.707 74.8699L136.231 86.6835L124.328 86.7615L84.8316 85.377L56.1442 85.6717L43.2354 85.9314L42.2816 98.7032L46.2322 102.498C46.2322 102.498 51.4702 104.088 51.9542 104.078C52.4787 104.067 61.7771 104.889 61.7771 104.889Z" fill="#FFFDFA"/>
<path fill-rule="evenodd" clip-rule="evenodd" d="M155.682 72.6533L155.981 87.4936C156.307 95.6513 153.75 99.6738 151.004 101.632C149.643 102.602 148.263 103.046 147.223 103.247C146.703 103.347 146.266 103.387 145.958 103.402C145.803 103.41 145.68 103.411 145.594 103.41C145.552 103.41 145.518 103.409 145.494 103.408C145.486 103.408 145.478 103.408 145.472 103.407L61.7627 105.294L61.7404 105.292L61.7759 104.89C61.7404 105.292 61.7405 105.292 61.7404 105.292L61.74 105.292L61.7387 105.291L61.34 105.256C61.0848 105.234 60.7196 105.202 60.2797 105.163C59.3999 105.087 58.2215 104.984 57.0268 104.882C55.8319 104.78 54.6213 104.678 53.6769 104.603C52.7142 104.526 52.0658 104.48 51.9611 104.482C51.889 104.483 51.8069 104.471 51.741 104.46C51.6665 104.447 51.578 104.429 51.4798 104.407C51.283 104.363 51.0332 104.3 50.7517 104.226C50.188 104.077 49.4843 103.878 48.7984 103.68C48.1119 103.481 47.4408 103.282 46.9415 103.133C46.6918 103.059 46.485 102.997 46.3406 102.953L46.1148 102.885L46.1141 102.885C46.114 102.885 46.1138 102.885 46.231 102.499L46.1141 102.885L46.0212 102.857L41.8639 98.8633L42.8591 85.5361L56.1388 85.2689L84.8353 84.9741L124.332 86.3587L135.928 86.2826L139.394 74.4997L155.682 72.6533ZM46.4406 102.14L46.5734 102.181C46.7173 102.224 46.9235 102.286 47.1724 102.36C47.6704 102.509 48.339 102.707 49.0225 102.905C49.7066 103.102 50.4032 103.299 50.9577 103.446C51.2354 103.519 51.4741 103.579 51.6565 103.62C51.7479 103.64 51.8215 103.655 51.877 103.665C51.9283 103.673 51.9484 103.675 51.9484 103.675C51.9484 103.675 51.9472 103.675 51.9449 103.675C52.1024 103.672 52.813 103.724 53.7412 103.799C54.6878 103.874 55.9002 103.976 57.0954 104.078C58.2909 104.18 59.4699 104.283 60.3499 104.36C60.79 104.398 61.1553 104.43 61.4107 104.452L61.7892 104.486L145.485 102.6L145.5 102.601L145.501 102.601L145.504 102.601C145.508 102.601 145.514 102.602 145.522 102.602C145.539 102.602 145.566 102.603 145.601 102.603C145.673 102.604 145.78 102.603 145.918 102.596C146.195 102.583 146.593 102.547 147.07 102.454C148.025 102.27 149.291 101.863 150.536 100.975C153.002 99.2162 155.494 95.4907 155.174 87.5217L155.174 87.5177L154.893 73.5549L140.017 75.2412L136.533 87.0856L124.321 87.1657L84.8254 85.7812L56.151 86.0757L43.6092 86.3281L42.6969 98.5445L46.4406 102.14Z" fill="#808080"/>
<path d="M21.1057 45.0526L120.708 43.1696L130.819 92.4027L59.9728 93.3842L40.3578 93.2946L25.5986 83.8254L21.1057 45.0526Z" fill="#FFFDFA"/>
<path fill-rule="evenodd" clip-rule="evenodd" d="M20.6562 44.6582L121.038 42.7605L131.315 92.8L59.9771 93.7883L40.2411 93.6982L25.2223 84.0623L20.6562 44.6582ZM21.5602 45.4482L25.9799 83.5896L40.4794 92.8923L59.9771 92.9814L130.328 92.0066L120.382 43.58L21.5602 45.4482Z" fill="#808080"/>
<path d="M36.934 129.685C35.802 129.586 34.9346 128.595 35.0321 127.423L37.308 100.136L44.7492 100.915L39.6768 127.612C39.46 128.867 38.2676 129.779 36.934 129.685Z" fill="#FFFDFA"/>
<path fill-rule="evenodd" clip-rule="evenodd" d="M36.9386 99.6921L45.2259 100.559L40.0723 127.684C39.8167 129.153 38.4317 130.195 36.904 130.087L36.9008 130.087L36.8975 130.087C35.5476 129.969 34.5122 128.786 34.6284 127.389L36.9386 99.6921ZM37.6743 100.58L35.4326 127.456C35.4326 127.456 35.4326 127.456 35.4326 127.456C35.354 128.402 36.0517 129.201 36.9641 129.282C38.1012 129.361 39.0982 128.582 39.2777 127.543L39.2783 127.54L44.2694 101.27L37.6743 100.58Z" fill="#808080"/>
<path d="M51.0994 75.4822C51.0994 75.4822 61.3304 74.5095 61.8382 83.7006L61.8671 89.1481C61.8671 89.1481 61.5456 93.2305 66.3889 93.2542L47.4629 93.3121L48.4066 78.0384L51.0994 75.4822Z" fill="#FFFDFA"/>
<path fill-rule="evenodd" clip-rule="evenodd" d="M51.2726 75.8742L48.7996 78.2218L47.8922 92.9074L63.2893 92.8602C62.6461 92.4419 62.2252 91.9076 61.9528 91.3765C61.6623 90.8102 61.5413 90.2495 61.4919 89.834C61.4671 89.6254 61.46 89.4505 61.4593 89.326C61.4589 89.2637 61.4601 89.2138 61.4615 89.1782C61.4622 89.1605 61.4629 89.1464 61.4635 89.136C61.4635 89.136 61.4635 89.1361 61.4635 89.136L61.4348 83.7129C61.3107 81.5005 60.6058 79.9278 59.6398 78.8018C58.6683 77.6693 57.4103 76.9628 56.1466 76.5262C54.8824 76.0893 53.6274 75.9279 52.6842 75.8768C52.2137 75.8513 51.8236 75.8533 51.5525 75.8617C51.4361 75.8653 51.3418 75.87 51.2726 75.8742ZM62.2693 89.1798L62.2691 89.1839C62.2688 89.189 62.2683 89.1977 62.2678 89.2098C62.2669 89.2341 62.2659 89.2719 62.2662 89.3212C62.2668 89.4201 62.2725 89.5644 62.2932 89.7388C62.3349 90.0895 62.4362 90.5509 62.6708 91.0082C62.9036 91.462 63.2682 91.9136 63.845 92.2557C64.4229 92.5984 65.2374 92.8451 66.3909 92.8508L66.3901 93.6577L66.3869 93.6577L47.0337 93.717L48.0138 77.8552L50.9227 75.0937L51.0613 75.0806L51.0995 75.4822C51.0613 75.0806 51.0615 75.0805 51.0618 75.0805L51.0625 75.0805L51.0646 75.0803L51.0716 75.0796L51.0965 75.0775C51.1178 75.0758 51.1487 75.0735 51.1883 75.0709C51.2676 75.0658 51.3824 75.0596 51.5277 75.0551C51.8181 75.0462 52.2313 75.0441 52.7278 75.071C53.7188 75.1247 55.0532 75.2946 56.4102 75.7634C57.7678 76.2325 59.1627 77.0062 60.2523 78.2763C61.3459 79.5512 62.1097 81.3005 62.2411 83.6784L62.2416 83.6884L62.2707 89.163L62.2694 89.1787L62.2693 89.1798Z" fill="#808080"/>
<path d="M126.572 73.803L155.292 73.1445C155.292 73.1445 144.804 73.3555 145.444 81.091L145.782 89.8819C145.782 89.8819 146.436 92.2901 143.088 92.3575L121.985 92.54L121.7 78.3806C121.66 78.3814 121.86 74.2611 126.572 73.803Z" fill="#FFFDFA"/>
<path fill-rule="evenodd" clip-rule="evenodd" d="M155.281 72.7418C155.282 72.7418 155.282 72.7418 155.29 73.1452L155.282 72.7418L155.299 73.5486L155.297 73.5486L155.293 73.5487L155.273 73.5493C155.255 73.5499 155.227 73.5509 155.19 73.5525C155.117 73.5558 155.009 73.5617 154.87 73.5718C154.592 73.5921 154.195 73.6296 153.719 73.6984C152.765 73.8363 151.507 74.0982 150.276 74.5921C149.042 75.087 147.859 75.8048 147.024 76.84C146.198 77.8649 145.692 79.2253 145.844 81.0585L145.844 81.0674L146.181 89.8279C146.187 89.851 146.193 89.8813 146.199 89.9179C146.213 89.9983 146.227 90.1103 146.233 90.244C146.243 90.509 146.217 90.875 146.06 91.2507C145.901 91.6334 145.61 92.0111 145.12 92.2929C144.635 92.5712 143.977 92.7439 143.093 92.7617L143.089 92.7617L121.587 92.9476L121.295 78.4255C121.294 78.4157 121.293 78.4081 121.293 78.4038C121.29 78.3769 121.29 78.3503 121.291 78.3298C121.291 78.2856 121.294 78.2298 121.301 78.1655C121.313 78.0356 121.338 77.8567 121.385 77.6441C121.479 77.2194 121.66 76.6488 122.003 76.0614C122.697 74.87 124.036 73.6446 126.53 73.4022L126.545 73.4008L155.272 72.742L155.279 72.7419L155.281 72.7418L155.281 72.7418ZM150.462 73.6595L126.594 74.2068C124.385 74.4257 123.272 75.487 122.7 76.4679C122.408 76.9677 122.253 77.4558 122.173 77.8177C122.133 77.9984 122.113 78.1448 122.104 78.2419C122.102 78.2623 122.101 78.2799 122.1 78.2947L122.378 92.1338L143.08 91.9548C143.869 91.9386 144.384 91.7852 144.718 91.5931C145.046 91.4044 145.221 91.1675 145.316 90.9396C145.414 90.7049 145.434 90.4646 145.426 90.276C145.423 90.1829 145.413 90.1062 145.404 90.0546C145.399 90.0289 145.395 90.0098 145.393 89.9983C145.392 89.9958 145.392 89.9937 145.391 89.992C145.391 89.9897 145.39 89.988 145.39 89.987L145.39 89.9861L145.378 89.9441L145.039 81.1161C144.873 79.0859 145.438 77.5219 146.396 76.3334C147.348 75.1534 148.667 74.3681 149.976 73.8432C150.138 73.7782 150.3 73.7171 150.462 73.6595Z" fill="#808080"/>
<path d="M21.1077 45.0522L16.3094 49.2651L22.0798 77.3177L22.1259 91.6433C22.1259 91.6433 20.1284 106.696 45.165 105.466L61.7802 104.889C61.7802 104.889 51.0854 106.88 51.094 91.2622L51.0994 75.4827L30.4421 75.737L21.1077 45.0522Z" fill="#FFFDFA"/>
<path fill-rule="evenodd" clip-rule="evenodd" d="M21.3082 44.3358L30.7365 75.3294L51.4996 75.0739L51.4941 91.2619C51.4899 98.972 54.1185 102.215 56.6233 103.578C57.8456 104.243 59.0718 104.48 60.0191 104.546L61.7628 104.486L61.8506 105.286L61.7768 104.889C61.8506 105.286 61.8503 105.286 61.8499 105.286L61.849 105.286L61.8464 105.286L61.8384 105.288C61.8317 105.289 61.8225 105.291 61.8108 105.293C61.7875 105.296 61.7542 105.301 61.7116 105.307C61.6265 105.319 61.5043 105.334 61.3501 105.346C61.0421 105.371 60.6055 105.389 60.0828 105.359C60.0574 105.357 60.0318 105.356 60.006 105.354L45.1813 105.868C45.1803 105.869 45.1793 105.869 45.1782 105.869C32.586 106.487 26.667 103.013 23.9272 99.2531C22.5648 97.3835 22.0133 95.4744 21.8023 94.0341C21.6968 93.3138 21.6761 92.7089 21.6821 92.2816C21.6851 92.0679 21.6947 91.8983 21.7039 91.7805C21.7084 91.7216 21.7128 91.6756 21.7162 91.6435C21.7172 91.6343 21.7181 91.6263 21.7189 91.6194L21.673 77.359L15.8635 49.1162L21.3082 44.3358ZM22.5224 91.6961L22.5217 91.7017C22.5211 91.7072 22.52 91.7162 22.5187 91.7286C22.5161 91.7534 22.5124 91.7918 22.5084 91.8428C22.5005 91.9449 22.4917 92.0975 22.489 92.2929C22.4835 92.684 22.5024 93.2455 22.6008 93.9172C22.7976 95.2608 23.3116 97.038 24.5794 98.7779C27.0998 102.237 32.6996 105.674 45.1417 105.062L45.1446 105.062L56.9938 104.651C56.7432 104.545 56.4905 104.424 56.2376 104.287C53.3972 102.741 50.6828 99.1696 50.6871 91.2617C50.6871 91.2616 50.6871 91.2617 50.6871 91.2617L50.6924 75.8908L30.1408 76.1438L20.9004 45.7678L16.7484 49.4131L22.4797 77.2756L22.526 91.6689L22.5225 91.6954L22.5224 91.6961Z" fill="#808080"/>
<path d="M53.9462 44.5128C53.9462 44.5128 55.6226 43.5912 57.7275 49.9252L68.7233 88.9707C68.7233 88.9707 69.5741 93.1506 74.0624 93.5849C78.5507 94.0192 74.2051 112.711 74.2051 112.711L78.8567 109.227L83.3623 112.527L86.1794 110.129L89.0857 112.169L92.7201 110.28L96.4276 112.022L99.5319 109.861L102.957 111.608L106.061 109.447L109.774 111.471L111.825 109.089L114.731 111.129L117.029 108.984L119.688 110.747L121.738 108.365L125.467 111.155C125.467 111.155 127.294 93.6842 124.568 92.5687C116.96 89.5336 115.892 92.5819 114.792 88.0437C113.69 83.4249 104.278 46.89 104.278 46.89C104.278 46.89 103.68 43.2296 101.063 43.5648C98.446 43.8596 53.9462 44.5128 53.9462 44.5128Z" fill="#DEBA99"/>
</g>
<defs>
<clipPath id="clip0_2_441">
<rect width="139.322" height="87.031" fill="white" transform="translate(15.7656 44.4336) rotate(-1.15268)"/>
</clipPath>
</defs>
</svg>
