<svg width="173" height="173" viewBox="0 0 173 173" fill="none" xmlns="http://www.w3.org/2000/svg">
<rect width="173" height="173" fill="#FFFDFA"/>
<g clip-path="url(#clip0_2_385)">
<path d="M25.7338 76.5383L65.3694 46.7188L139.437 86.7259L144.072 88.7591L146.214 88.3218L150.915 91.0983L144.75 98.3345L136.53 104.194L98.4463 126.667L82.7714 124.066L37.8234 97.2852L24.8594 87.032L25.7338 76.5383Z" fill="#FFFDFA"/>
<path fill-rule="evenodd" clip-rule="evenodd" d="M65.351 46.459L139.534 86.5285L144.097 88.5302L146.254 88.09L151.251 91.0414L144.9 98.4961L136.65 104.376L98.49 126.895L82.6959 124.274L37.7002 97.4648L24.6328 87.1299L25.5252 76.4217L65.351 46.459ZM65.3898 46.9769L25.9446 76.6533L25.088 86.9324L37.9488 97.104L82.8489 123.856L98.4047 126.438L136.411 104.009L144.602 98.1714L150.581 91.1535L146.177 88.5521L144.049 88.9863L139.342 86.9217L65.3898 46.9769Z" fill="#808080"/>
<path d="M27.0233 105.222L31.811 102.511L31.9859 95.9304L26.8047 93.2852L27.0233 105.222Z" fill="#FFFDFA"/>
<path fill-rule="evenodd" clip-rule="evenodd" d="M26.5821 92.9237L32.2108 95.7974L32.029 102.639L26.8141 105.592L26.5821 92.9237ZM27.0326 93.6446L27.2379 104.85L31.5985 102.381L31.7664 96.0615L27.0326 93.6446Z" fill="#808080"/>
<path d="M141.473 105.307V113.025L146.348 115.67L147.9 113.134L148.512 104.127L141.473 105.307Z" fill="#FFFDFA"/>
<path fill-rule="evenodd" clip-rule="evenodd" d="M148.745 103.867L148.11 113.204L146.422 115.963L141.25 113.156V105.124L148.745 103.867ZM141.687 105.494V112.896L146.266 115.381L147.682 113.067L148.271 104.39L141.687 105.494Z" fill="#808080"/>
<path d="M95.6065 123.322L150.917 91.0977L151.157 112.588L146.348 115.67L146.107 105.177L100.416 130.864L100.307 141.599L95.3661 144.55L93.5078 140.986L93.8795 126.907L95.6065 123.322Z" fill="#FFFDFA"/>
<path fill-rule="evenodd" clip-rule="evenodd" d="M151.129 90.7207L151.375 112.708L146.136 116.065L145.895 105.547L100.631 130.994L100.522 141.724L95.2767 144.857L93.2852 141.038L93.6595 126.856L95.436 123.168L151.129 90.7207ZM95.7718 123.478L94.0942 126.961L93.7252 140.936L95.4502 144.244L100.087 141.475L100.196 130.737L146.315 104.809L146.555 115.277L150.935 112.47L150.7 91.4766L95.7718 123.478Z" fill="#808080"/>
<path d="M95.3666 144.551L90.9286 142.343V131.609L25.7366 94.0718L25.6055 82.332L27.0921 84.0591L95.6071 123.323L95.3666 144.551Z" fill="#FFFDFA"/>
<path fill-rule="evenodd" clip-rule="evenodd" d="M25.3789 81.7344L27.232 83.8873L95.8259 123.196L95.58 144.901L90.7087 142.477V131.734L25.5182 94.1982L25.3789 81.7344ZM25.8295 82.9281L25.9526 93.9438L91.146 131.481V142.207L95.1507 144.199L95.3857 123.448L26.9496 84.2294L25.8295 82.9281Z" fill="#808080"/>
<path d="M81.8326 30.8027L82.0294 52.4678L58.8777 76.9093L32.1844 82.8558L27.0906 84.0582L24.4453 81.5441L24.9919 60.7972L74.0717 32.0926L81.8326 30.8027Z" fill="#FFFDFA"/>
<path fill-rule="evenodd" clip-rule="evenodd" d="M82.0474 30.5449L82.2473 52.5538L58.9889 77.108L32.2331 83.0683L32.2304 83.0689L27.0242 84.2979L24.2227 81.6353L24.775 60.6696L73.9945 31.8833L82.0474 30.5449ZM74.1457 32.3014L25.2056 60.9242L24.6649 81.4523L27.1539 83.818L32.1326 82.6427L32.1353 82.6421L58.7634 76.7102L81.8084 52.3813L81.6148 31.06L74.1457 32.3014Z" fill="#808080"/>
<path d="M32.4029 78.0254L32.0312 82.835L96.4799 120.241L96.2832 115.431L48.8867 80.0585L32.4029 78.0254Z" fill="#FFFDFA"/>
<path fill-rule="evenodd" clip-rule="evenodd" d="M32.2006 77.7793L48.9691 79.8476L96.4955 115.317L96.7127 120.628L31.8008 82.954L32.2006 77.7793ZM32.6013 78.2693L32.2579 82.7138L96.2433 119.85L96.0671 115.543L48.8005 80.2673L32.6013 78.2693Z" fill="#808080"/>
<path d="M96.2857 115.429L95.9141 98.377L128.882 92.2776L134.806 86.1562L146.284 86.353L146.48 91.1626L96.4825 120.239" fill="#FFFDFA"/>
<path fill-rule="evenodd" clip-rule="evenodd" d="M134.711 85.9375L146.49 86.1394L146.7 91.2868L96.5884 120.429L96.3686 120.051L146.253 91.0413L146.07 86.5695L134.893 86.3779L128.986 92.4813L96.1327 98.5596L96.5003 115.426L96.0632 115.435L95.6875 98.1973L128.769 92.0768L134.711 85.9375Z" fill="#808080"/>
<path d="M32.4023 78.0247L96.2826 115.43L146.281 86.354L80.7388 50.2383L32.4023 78.0247Z" fill="#FFFDFA"/>
<path fill-rule="evenodd" clip-rule="evenodd" d="M80.7386 49.9883L146.726 86.3498L96.2843 115.684L31.9688 78.0238L80.7386 49.9883ZM80.7432 50.49L32.84 78.0273L96.285 115.178L145.839 86.36L80.7432 50.49Z" fill="#808080"/>
<path d="M108.326 65.4316L65.1712 91.9063C65.1712 91.9063 59.2467 96.3443 59.2467 101.897C59.2467 107.45 58.875 119.496 58.875 119.496L87.7545 136.898C87.7545 136.898 85.8962 116.894 95.5373 110.598C103.08 105.679 141.425 83.249 141.425 83.249L108.326 65.4316Z" fill="#8FBECC"/>
<path d="M21.9968 59.1353L77.023 27.6543L81.8326 30.8024L27.2218 62.6551L27.025 105.22L21.8438 102.4L21.9968 59.1353Z" fill="#FFFDFA"/>
<path fill-rule="evenodd" clip-rule="evenodd" d="M77.031 27.3986L82.2485 30.8136L27.4401 62.7815L27.2423 105.588L21.625 102.53L21.7789 59.0088L77.031 27.3986ZM22.2153 59.2629L22.0632 102.271L26.8084 104.854L27.0041 62.5297L81.4174 30.7922L77.0157 27.9111L22.2153 59.2629Z" fill="#808080"/>
<path d="M57.4336 58.3926V63.2022L66.9872 69.1923L66.8779 64.3171L65.9597 59.5075L57.4336 58.3926Z" fill="#658B97"/>
<path d="M66.9857 69.1931L85.1091 57.9342L85.0217 53.2121L75.7741 53.1465L66.5703 59.6832L66.9857 69.1931Z" fill="#658B97"/>
<path d="M57.4336 58.3932L75.5789 48.4023L85.0232 53.2119L66.8779 64.3178L57.4336 58.3932Z" fill="#8FBECC"/>
<path d="M37.2109 71.5312V76.3409L46.7646 82.3529L46.6552 77.4558L45.7371 72.6462L37.2109 71.5312Z" fill="#658B97"/>
<path d="M46.763 82.3536L64.8865 71.0729L64.799 66.3507L55.5515 66.2852L46.3477 72.8437L46.763 82.3536Z" fill="#658B97"/>
<path d="M37.2109 71.5319L55.3563 61.541L64.8006 66.3506L46.6552 77.4564L37.2109 71.5319Z" fill="#8FBECC"/>
</g>
<defs>
<clipPath id="clip0_2_385">
<rect width="129.75" height="117.529" fill="white" transform="translate(21.625 27.3926)"/>
</clipPath>
</defs>
</svg>
