<svg width="173" height="173" viewBox="0 0 173 173" fill="none" xmlns="http://www.w3.org/2000/svg">
<rect width="173" height="173" fill="#FFFDFA"/>
<path d="M157.141 112.72L98.4538 88.4375L51.9073 101.63L111.442 131.641L157.141 112.72Z" fill="#8FBECC"/>
<path d="M157.141 112.721V113.93L111.707 133.587L111.442 131.642L157.141 112.721Z" fill="#8FBECC"/>
<path d="M51.9069 101.629L111.442 131.64L111.707 133.585L52.278 103.101L51.9069 101.629Z" fill="#8FBECC"/>
<path d="M151.254 110.302L102.64 127.174L97.1263 124.44L149.292 109.461L151.254 110.302Z" fill="#658B97"/>
<path d="M145.371 107.832L95.9618 123.81L94.9545 123.337L140.759 105.939L145.371 107.832Z" fill="#658B97"/>
<path d="M105.292 91.2754L59.4345 105.414L64.6299 108.042L106.246 91.6433L105.292 91.2754Z" fill="#658B97"/>
<path d="M108.579 92.6426L68.4474 109.619L72.6355 111.879L111.707 93.904L108.579 92.6426Z" fill="#658B97"/>
<mask id="path-8-inside-1_2_462" fill="white">
<path d="M80.1161 42.1289L62.8921 40.9961L21.7383 43.7827L24.93 85.8626L25.4758 86.0445L25.9884 88.9138L29.2298 89.964L29.7921 88.4425L48.306 94.8674L49.662 96.4054L52.6057 96.455L53.6972 94.1645L76.5357 89.2198L77.7429 90.3857L79.992 89.7738L80.2236 86.458L80.3145 42.162L76.7672 42.1951"/>
</mask>
<path d="M80.1161 42.1289L62.8921 40.9961L21.7383 43.7827L24.93 85.8626L25.4758 86.0445L25.9884 88.9138L29.2298 89.964L29.7921 88.4425L48.306 94.8674L49.662 96.4054L52.6057 96.455L53.6972 94.1645L76.5357 89.2198L77.7429 90.3857L79.992 89.7738L80.2236 86.458L80.3145 42.162L76.7672 42.1951" fill="#FFFDFA"/>
<path d="M62.8921 40.9961L62.9057 40.7897L62.8919 40.7888L62.8782 40.7897L62.8921 40.9961ZM21.7383 43.7827L21.7243 43.5763L21.5162 43.5904L21.532 43.7983L21.7383 43.7827ZM24.93 85.8626L24.7238 85.8783L24.7342 86.0154L24.8646 86.0589L24.93 85.8626ZM25.4758 86.0445L25.6794 86.0082L25.6578 85.8872L25.5412 85.8483L25.4758 86.0445ZM25.9884 88.9138L25.7848 88.9502L25.8066 89.0724L25.9247 89.1106L25.9884 88.9138ZM29.2298 89.964L29.1661 90.1607L29.355 90.222L29.4239 90.0357L29.2298 89.964ZM29.7921 88.4425L29.8599 88.2471L29.6684 88.1806L29.5981 88.3708L29.7921 88.4425ZM48.306 94.8674L48.4611 94.7306L48.4251 94.6898L48.3738 94.6719L48.306 94.8674ZM49.662 96.4054L49.5069 96.5422L49.5673 96.6106L49.6586 96.6122L49.662 96.4054ZM52.6057 96.455L52.6022 96.6618L52.7352 96.664L52.7925 96.544L52.6057 96.455ZM53.6972 94.1645L53.6534 93.9623L53.5542 93.9838L53.5105 94.0755L53.6972 94.1645ZM76.5357 89.2198L76.6794 89.071L76.5999 88.9942L76.4919 89.0176L76.5357 89.2198ZM77.7429 90.3857L77.5992 90.5345L77.6838 90.6161L77.7972 90.5853L77.7429 90.3857ZM79.992 89.7738L80.0463 89.9734L80.1881 89.9348L80.1984 89.7882L79.992 89.7738ZM80.2236 86.458L80.4304 86.4724L80.4304 86.4584L80.2236 86.458ZM80.3145 42.162L80.5214 42.1624L80.5218 41.9532L80.3126 41.9551L80.3145 42.162ZM80.1296 41.9225L62.9057 40.7897L62.8786 41.2025L80.1025 42.3353L80.1296 41.9225ZM62.8782 40.7897L21.7243 43.5763L21.7523 43.9891L62.9061 41.2025L62.8782 40.7897ZM21.532 43.7983L24.7238 85.8783L25.1363 85.847L21.9445 43.767L21.532 43.7983ZM24.8646 86.0589L25.4104 86.2408L25.5412 85.8483L24.9955 85.6664L24.8646 86.0589ZM25.2721 86.0809L25.7848 88.9502L26.1921 88.8774L25.6794 86.0082L25.2721 86.0809ZM25.9247 89.1106L29.1661 90.1607L29.2936 89.7672L26.0522 88.717L25.9247 89.1106ZM29.4239 90.0357L29.9861 88.5142L29.5981 88.3708L29.0358 89.8923L29.4239 90.0357ZM29.7243 88.6379L48.2381 95.0628L48.3738 94.6719L29.8599 88.2471L29.7243 88.6379ZM48.1508 95.0042L49.5069 96.5422L49.8172 96.2685L48.4611 94.7306L48.1508 95.0042ZM49.6586 96.6122L52.6022 96.6618L52.6092 96.2481L49.6655 96.1985L49.6586 96.6122ZM52.7925 96.544L53.884 94.2535L53.5105 94.0755L52.419 96.366L52.7925 96.544ZM53.741 94.3667L76.5794 89.4219L76.4919 89.0176L53.6534 93.9623L53.741 94.3667ZM76.392 89.3686L77.5992 90.5345L77.8866 90.2369L76.6794 89.071L76.392 89.3686ZM77.7972 90.5853L80.0463 89.9734L79.9377 89.5742L77.6886 90.1861L77.7972 90.5853ZM80.1984 89.7882L80.4299 86.4724L80.0172 86.4436L79.7857 89.7594L80.1984 89.7882ZM80.4304 86.4584L80.5214 42.1624L80.1077 42.1616L80.0167 86.4576L80.4304 86.4584ZM80.3126 41.9551L76.7653 41.9882L76.7691 42.4019L80.3164 42.3688L80.3126 41.9551Z" fill="#808080" mask="url(#path-8-inside-1_2_462)"/>
<path d="M52.6565 96.5383L49.6218 96.4887L48.2575 94.9342L29.8428 88.5506L29.2805 90.0638L25.9151 88.9724L25.4025 86.1031L24.8567 85.9212L24.8485 85.8633L21.6484 43.7089L21.7311 43.7006L62.8932 40.9141H62.9015L80.1254 42.0469V42.08H80.4066V42.1627L80.3156 86.4586L80.0758 89.8406L77.7357 90.4773L76.5202 89.3114L53.7727 94.2396L52.6565 96.5383ZM78.3559 42.0965L62.8932 41.0794L21.8221 43.8578L25.0056 85.7971L25.543 85.9708L26.0557 88.8401L29.1813 89.8489L29.7436 88.3274L29.818 88.3522L48.3567 94.7936L49.7045 96.3233L52.5572 96.3647L53.6487 94.0907L53.6901 94.0825L76.5698 89.1212L77.7854 90.2871L79.927 89.7083L80.1585 86.4504L80.2495 42.2453H79.8443" fill="#808080"/>
<path d="M49.5 46.8671L50.2442 69.7469L80.1277 63.3965L80.0367 42.9395L49.5 46.8671Z" fill="#FFFDFA" stroke="#808080" stroke-width="0.413714" stroke-miterlimit="10"/>
<path d="M61.7344 47.8019V49.4805L72.0042 47.7027C72.0042 47.7027 72.5665 46.5781 72.1944 46.5781C71.8223 46.5781 61.7344 47.8019 61.7344 47.8019Z" fill="#FFFDFA" stroke="#808080" stroke-width="0.413714" stroke-miterlimit="10"/>
<path d="M50.125 71.6159L50.7617 92.7675L79.8927 85.5488L80.2483 65.7285L50.125 71.6159Z" fill="#FFFDFA" stroke="#808080" stroke-width="0.413714" stroke-miterlimit="10"/>
<path d="M61.8906 71.3346L62.0312 73.5754L72.2597 70.2845L72.1191 69.0938L61.8906 71.3346Z" fill="#FFFDFA" stroke="#808080" stroke-width="0.413714" stroke-miterlimit="10"/>
</svg>
