<svg width="173" height="173" viewBox="0 0 173 173" fill="none" xmlns="http://www.w3.org/2000/svg">
<rect width="173" height="173" fill="#FFFDFA"/>
<g clip-path="url(#clip0_2_416)">
<path d="M36.8281 69.7734L39.1889 107.36L44.8547 104.611L44.6354 73.5675L36.8281 69.7734Z" fill="#FFFDFA"/>
<path fill-rule="evenodd" clip-rule="evenodd" d="M36.6406 69.4961L44.8022 73.4623L45.0229 104.717L39.0353 107.622L36.6406 69.4961ZM37.0135 70.0522L39.3403 107.099L44.6842 104.507L44.4665 73.6741L37.0135 70.0522Z" fill="#808080"/>
<path d="M137.175 82.7402V117.915L131.948 121.187L129.132 113.346L128.187 89.5189L137.175 82.7402Z" fill="#FFFDFA"/>
<path fill-rule="evenodd" clip-rule="evenodd" d="M137.344 82.4023V118.009L131.86 121.441L128.964 113.379L128.015 89.4379L137.344 82.4023ZM128.359 89.6009L129.299 113.313L132.036 120.933L137.006 117.822V83.0791L128.359 89.6009Z" fill="#808080"/>
<path d="M102.473 104.072L102.625 137.83L96.9253 141.203L93.7889 117.95L94.7332 103.279L102.473 104.072Z" fill="#FFFDFA"/>
<path fill-rule="evenodd" clip-rule="evenodd" d="M94.5738 103.094L102.639 103.92L102.792 137.926L96.7899 141.478L93.6172 117.956L94.5738 103.094ZM94.8879 103.465L93.9559 117.944L97.0561 140.928L102.453 137.735L102.303 104.224L94.8879 103.465Z" fill="#808080"/>
<path d="M33.5559 67.6484L33.5391 103.818L39.188 107.36L39.3229 72.7409L33.5559 67.6484Z" fill="#FFFDFA"/>
<path fill-rule="evenodd" clip-rule="evenodd" d="M33.3882 67.2754L39.4925 72.6658L39.3561 107.664L33.3711 103.912L33.3882 67.2754ZM33.7251 68.0228L33.7084 103.726L39.0212 107.056L39.1547 72.8173L33.7251 68.0228Z" fill="#808080"/>
<path d="M91.41 101.998V137.308L96.924 140.697L97.1938 105.252L91.41 101.998Z" fill="#FFFDFA"/>
<path fill-rule="evenodd" clip-rule="evenodd" d="M91.2422 101.709L97.364 105.154L97.0912 140.997L91.2422 137.402V101.709ZM91.5794 102.286V137.213L96.7585 140.396L97.0253 105.35L91.5794 102.286Z" fill="#808080"/>
<path d="M125.793 89.7561L126.029 117.663L131.948 121.188L131.83 87.5977L125.793 89.7561Z" fill="#FFFDFA"/>
<path fill-rule="evenodd" clip-rule="evenodd" d="M131.995 87.3574L132.115 121.484L125.859 117.759L125.621 89.6365L131.995 87.3574ZM125.96 89.8733L126.195 117.566L131.776 120.889L131.66 87.8356L125.96 89.8733Z" fill="#808080"/>
<path d="M98.6784 108.372L147.799 79.976L147.984 73.8887L115.473 75.5075L96.7055 97.6647L95.2891 103.904L98.6784 108.372Z" fill="#FFFDFA"/>
<path fill-rule="evenodd" clip-rule="evenodd" d="M148.157 73.7109L147.963 80.0748L98.6322 108.593L95.1055 103.943L96.5484 97.587L115.39 75.3425L148.157 73.7109ZM115.553 75.672L96.8591 97.742L95.4691 103.864L98.7211 108.152L147.631 79.8768L147.808 74.0659L115.553 75.672Z" fill="#808080"/>
<path d="M26.4375 60.5161L26.5218 66.4011L98.6762 108.372L98.5582 102.74L89.9246 79.0817L37.2295 59.791L26.4375 60.5161Z" fill="#FFFDFA"/>
<path fill-rule="evenodd" clip-rule="evenodd" d="M37.2568 59.6211L90.0591 78.951L98.7291 102.709L98.854 108.669L26.3575 66.4996L26.2695 60.3593L37.2568 59.6211ZM26.6113 60.6743L26.692 66.304L98.5043 108.076L98.3931 102.772L89.796 79.2138L37.208 59.9624L26.6113 60.6743Z" fill="#808080"/>
<path d="M98.5582 102.739L26.4375 60.5153L75.0182 36.4863L147.982 73.8872L98.5582 102.739Z" fill="#FFFDFA"/>
<path fill-rule="evenodd" clip-rule="evenodd" d="M75.0231 36.2988L148.336 73.8789L98.5616 102.936L26.0859 60.5041L75.0231 36.2988ZM26.7961 60.5291L98.5619 102.545L147.635 73.8981L75.0204 36.6764L26.7961 60.5291Z" fill="#808080"/>
<path d="M62.8116 77.3778L40.8398 64.5286L55.6451 55.8613L77.8698 68.5925L62.8116 77.3778Z" fill="#AEBBD3"/>
<path d="M90.9366 94.9325L68.9648 82.0665L83.7701 73.416L105.995 86.1472L90.9366 94.9325Z" fill="#AEBBD3"/>
<path d="M117.007 80.2118L95.0352 67.3626L109.824 58.6953L132.048 71.4265L117.007 80.2118Z" fill="#AEBBD3"/>
<path d="M87.8338 62.9266L65.8789 50.0775L80.6673 41.4102L102.892 54.1413L87.8338 62.9266Z" fill="#AEBBD3"/>
</g>
<defs>
<clipPath id="clip0_2_416">
<rect width="122.219" height="109.572" fill="white" transform="translate(26.1016 31.9004)"/>
</clipPath>
</defs>
</svg>
