<svg width="173" height="173" viewBox="0 0 173 173" fill="none" xmlns="http://www.w3.org/2000/svg">
<rect width="173" height="173" fill="#FFFDFA"/>
<g clip-path="url(#clip0_2_493)">
<path d="M90.5717 26.4274L85.2777 26.0586L53.4491 44.0449L53.8613 125.276L57.8318 128.813" fill="#FFFDFA"/>
<path d="M57.7658 128.899L53.7519 125.341V125.275L53.3397 43.9789L85.2551 25.9492H85.2985L90.5925 26.3181L90.5708 26.535L85.2985 26.1662L53.5567 44.1091L53.9689 125.232L57.896 128.747L57.7658 128.899Z" fill="#808080"/>
<path d="M90.5294 110.241L57.8329 128.813L57.7461 45.2385L90.5728 26.4277L90.5294 110.241Z" fill="#FFFDFA"/>
<path d="M57.7235 129.008L57.6367 45.1732L57.7018 45.1515L90.6804 26.2539V26.4492L90.637 110.328L90.5719 110.349L57.7235 129.008ZM57.8537 45.2817L57.9405 128.618L90.42 110.154L90.4634 26.601L57.8537 45.2817Z" fill="#808080"/>
<path d="M60.9649 86.5866C61.9479 86.2049 62.5162 85.3068 62.2342 84.5808C61.9523 83.8547 60.9269 83.5756 59.9439 83.9573C58.9609 84.339 58.3926 85.237 58.6746 85.9631C58.9565 86.6892 59.982 86.9683 60.9649 86.5866Z" fill="#FFFDFA"/>
<path d="M60.0871 86.8723C59.8918 86.8723 59.7182 86.8506 59.5447 86.8072C59.0673 86.677 58.7419 86.395 58.59 86.0262C58.2863 85.2451 58.8938 84.2904 59.9352 83.8782C60.4342 83.6829 60.9549 83.6395 61.4106 83.7697C61.8879 83.8999 62.2133 84.182 62.3652 84.5508C62.5171 84.9413 62.452 85.3753 62.1916 85.7875C61.9313 86.178 61.519 86.5035 61.02 86.6987C60.6946 86.8072 60.3908 86.8723 60.0871 86.8723ZM60.8465 83.8999C60.5644 83.8999 60.2823 83.965 59.9786 84.0735C59.0456 84.4423 58.5032 85.2668 58.7636 85.9394C58.8938 86.2648 59.1758 86.4818 59.5664 86.5903C59.9786 86.6987 60.4559 86.6553 60.9115 86.4818C61.3672 86.3082 61.736 86.0045 61.9747 85.6573C62.1916 85.3102 62.2567 84.9413 62.1265 84.6376C61.9964 84.3121 61.7143 84.0952 61.3238 83.9867C61.1936 83.9216 61.02 83.8999 60.8465 83.8999Z" fill="#808080"/>
<path d="M93.8214 113.256L60.7344 131.459L85.4032 145.757L118.121 127.163L93.8214 113.256Z" fill="#658B97"/>
<path d="M85.4053 145.887L85.3619 145.865L60.5195 131.458L60.6931 131.372L93.8452 113.125L93.8886 113.147L118.34 127.141L85.4053 145.887ZM60.9535 131.48L85.4053 145.648L117.885 127.163L93.8235 113.385L60.9535 131.48Z" fill="#658B97"/>
<path d="M93.1758 115.664L64.9922 131.177L86.016 143.349L113.874 127.51L93.1758 115.664Z" fill="#8FBECC"/>
<path d="M86.0142 143.478L85.9708 143.456L64.7734 131.176L64.947 131.089L93.1957 115.555L93.2391 115.576L114.089 127.509L86.0142 143.478ZM65.2074 131.176L86.0142 143.218L113.655 127.509L93.1957 115.793L65.2074 131.176Z" fill="#658B97"/>
<path d="M85.0197 106.443L62.8242 120.177L62.9544 48.1663L85.6272 35.3438L85.0197 106.443Z" fill="#FFFDFA"/>
<path d="M62.7148 120.372V120.176L62.8233 48.101L85.713 35.1699V35.3652L85.1272 106.529L85.0839 106.551L62.7148 120.372ZM63.062 48.2095L62.9535 119.96L84.932 106.378L85.5178 35.5171L63.062 48.2095Z" fill="#8FBECC"/>
<path d="M65.2305 50.3134L65.5125 74.9822L82.1537 65.6962L82.0018 41.0273L65.2305 50.3134Z" fill="#FFFDFA"/>
<path d="M65.4031 75.1775L65.1211 50.2483L82.1094 40.832L82.2396 65.7612L65.4031 75.1775ZM65.3381 50.3785L65.6201 74.8086L82.0443 65.631L81.9141 41.2009L65.3381 50.3785Z" fill="#8FBECC"/>
<path d="M65.3594 77.6298L65.5112 86.2216L82.2826 76.9355L82.0005 68.3438L65.3594 77.6298Z" fill="#FFFDFA"/>
<path d="M65.4019 86.4168L65.25 77.5647L82.1081 68.1484L82.3902 77.0006L82.3251 77.0223L65.4019 86.4168ZM65.467 77.6949L65.5971 86.048L82.1515 76.8704L81.8912 68.5173L65.467 77.6949Z" fill="#8FBECC"/>
<path d="M65.2305 88.8683L65.3606 113.819L82.0018 104.381L82.1537 79.5605L65.2305 88.8683Z" fill="#FFFDFA"/>
<path d="M65.2513 114.014L65.1211 88.803L82.2613 79.3867L82.1311 104.446L82.066 104.468L65.2513 114.014ZM65.3381 88.9114L65.4682 113.624L81.8924 104.316L82.0226 79.7339L65.3381 88.9114Z" fill="#8FBECC"/>
<path d="M85.0197 106.443L62.8242 120.177L62.9544 48.1663L85.6272 35.3438L85.0197 106.443Z" fill="#FFFDFA"/>
<path d="M62.7148 120.372V120.176L62.8233 48.101L85.713 35.1699V35.3652L85.1272 106.529L85.0839 106.551L62.7148 120.372ZM63.062 48.2095L62.9535 119.96L84.932 106.378L85.5178 35.5171L63.062 48.2095Z" fill="#808080"/>
<path d="M65.2305 50.3134L65.5125 74.9822L82.1537 65.6962L82.0018 41.0273L65.2305 50.3134Z" fill="#FFFDFA"/>
<path d="M65.4031 75.1775L65.1211 50.2483L82.1094 40.832L82.2396 65.7612L65.4031 75.1775ZM65.3381 50.3785L65.6201 74.8086L82.0443 65.631L81.9141 41.2009L65.3381 50.3785Z" fill="#808080"/>
<path d="M65.3594 77.6298L65.5112 86.2216L82.2826 76.9355L82.0005 68.3438L65.3594 77.6298Z" fill="#FFFDFA"/>
<path d="M65.4019 86.4168L65.25 77.5647L82.1081 68.1484L82.3902 77.0006L82.3251 77.0223L65.4019 86.4168ZM65.467 77.6949L65.5971 86.048L82.1515 76.8704L81.8912 68.5173L65.467 77.6949Z" fill="#808080"/>
<path d="M65.2305 88.8683L65.3606 113.819L82.0018 104.381L82.1537 79.5605L65.2305 88.8683Z" fill="#FFFDFA"/>
<path d="M65.2513 114.014L65.1211 88.803L82.2613 79.3867L82.1311 104.446L82.066 104.468L65.2513 114.014ZM65.3381 88.9114L65.4682 113.624L81.8924 104.316L82.0226 79.7339L65.3381 88.9114Z" fill="#808080"/>
</g>
<defs>
<clipPath id="clip0_2_493">
<rect width="65.0025" height="119.938" fill="white" transform="translate(53.3398 25.9492)"/>
</clipPath>
</defs>
</svg>
