<svg width="173" height="173" viewBox="0 0 173 173" fill="none" xmlns="http://www.w3.org/2000/svg">
<rect width="173" height="173" fill="#FFFDFA"/>
<g clip-path="url(#clip0_2_489)">
<path d="M77.3171 47.4062L40.7726 57.4856L36.006 59.3953L29.7563 60.4563L23.5067 61.8356L20.5408 63.0027L18.1045 65.6551L16.1978 69.0502L14.7148 72.8698V76.9015L15.4563 82.5247L17.4689 87.7235L22.0237 93.2406L28.3793 97.2723L40.1371 101.304L69.0549 110.641C75.8341 112.586 92.2103 117.516 103.481 121.675C114.751 125.834 117.075 125.671 116.827 125.07L155.702 101.516C156.267 101.163 157.461 100.264 157.715 99.5004C157.969 98.7365 157.185 97.7674 156.762 97.3784L82.9312 74.4612L76.2578 71.5966L77.3171 71.1722L82.7193 65.9734L87.2741 59.6075L77.3171 47.4062Z" fill="#FFFDFA"/>
<path d="M38.1598 83.1026C40.4763 82.4452 42.484 81.8651 44.4916 81.285C58.5067 77.0698 72.5603 72.8933 86.5754 68.6394C88.8533 67.9433 90.166 66.1257 90.9382 64.0375C92.2509 60.557 92.1736 57.0766 90.3204 53.7895C88.2741 50.1157 85.4171 47.37 81.1315 46.4032C79.4713 46.0165 77.8111 45.9778 76.1896 46.4419C68.6608 48.5302 61.0935 50.6184 53.5647 52.7067C43.4878 55.4911 33.4109 58.3528 23.2953 61.0984C20.0522 61.9879 17.8515 63.9988 16.4229 66.8605C14.4539 70.805 13.8748 75.0589 14.3381 79.4288C14.8014 83.5666 16.1913 87.3178 18.8553 90.5275C22.1371 94.5107 26.2682 97.2564 31.1329 98.8806C37.542 101.008 43.9511 103.018 50.3988 105.107C57.3484 107.35 64.3366 109.631 71.2862 111.913C85.726 116.592 100.127 121.233 114.567 125.873C115.493 126.183 116.227 126.067 117.076 125.564C130.126 117.675 143.137 109.786 156.264 102.013C158.195 100.853 158.272 99.19 158.581 97.4884C158.697 96.7537 158.002 96.599 157.423 96.4443C154.952 95.7095 152.481 94.9748 150.048 94.24C141.863 91.8424 133.64 89.4834 125.455 87.0858C112.25 83.2186 99.0846 79.3901 85.8804 75.4843C83.9886 74.9042 82.1353 74.1308 80.3207 73.3573C79.5485 73.048 78.9308 72.9319 78.12 73.2027C70.0893 75.6776 62.0201 78.0753 53.9508 80.4729C47.4259 82.4452 40.901 84.3401 34.3761 86.351C29.6658 87.8205 26.3068 85.4616 24.3378 82.0584C23.1409 80.0089 22.446 77.8432 22.7162 75.4069C22.7934 74.6335 22.9479 73.8601 23.2567 73.164C24.415 70.4183 27.6968 69.6449 30.0133 71.5398C31.2102 72.5066 31.9824 73.7441 32.214 75.2522C30.8241 75.6003 30.7855 75.6003 30.1291 74.5175C29.5114 73.4734 28.5848 72.8933 27.4265 72.9706C26.1138 73.0866 25.1872 73.8987 24.8011 75.2136C24.6853 75.639 24.608 76.103 24.5694 76.5284C24.4922 79.2354 25.6505 81.4397 27.6968 83.1026C30.3994 85.3069 34.5691 84.3401 36.3452 81.2463C37.4262 79.3901 37.6965 77.3018 37.349 75.2522C36.4996 70.5343 33.9514 66.9765 29.4342 65.275C24.2992 63.3801 20.4769 65.1976 18.4306 70.341C15.3805 78.0366 17.504 87.8979 26.6157 93.1185C29.6272 94.8201 32.8317 95.8642 36.0749 96.9084C51.2482 101.781 66.4215 106.615 81.5948 111.449C92.135 114.813 102.637 118.139 113.177 121.503C116.845 122.664 116.845 122.702 120.127 120.769C129.817 115.045 139.508 109.322 149.199 103.599C151.67 102.129 154.18 100.698 156.805 99.19C157.075 100.079 156.496 100.35 156.033 100.621C153.716 102.052 151.4 103.444 149.122 104.836C138.427 111.294 127.732 117.714 117.076 124.211C116.111 124.791 115.262 124.868 114.219 124.52C104.644 121.387 95.0307 118.255 85.4557 115.161C69.2013 109.902 52.9084 104.72 36.654 99.4607C33.3723 98.3779 30.0133 97.4111 26.9632 95.7095C22.7162 93.3119 19.2414 90.1408 17.2724 85.5776C15.6894 81.9811 15.1103 78.1913 15.6122 74.2855C15.921 71.8491 16.4229 69.4902 17.5812 67.2859C20.2066 62.4133 24.6853 61.0598 29.5114 62.8773C35.5344 65.159 40.2447 71.5011 39.1636 79.5835C39.0092 80.6663 38.5845 81.6717 38.1598 83.1026Z" fill="#AEBBD3"/>
</g>
<defs>
<clipPath id="clip0_2_489">
<rect width="144.397" height="79.9342" fill="white" transform="matrix(-1 0 0 1 158.582 46.1328)"/>
</clipPath>
</defs>
</svg>
